HIERARCHY
ROOT Hips
{
     OFFSET 1.88212 96.90440 -13.34250
     CHANNELS 6 Xposition Yposition Zposition Zrotation Xrotation Yrotation
     JOINT Spine
     {
          OFFSET 0.00000 11.89050 0.00000
          CHANNELS 3 Zrotation Xrotation Yrotation
          JOINT Spine1
          {
               OFFSET -0.00000 25.65740 0.12766
               CHANNELS 3 Zrotation Xrotation Yrotation
               JOINT HEad
               {
                    OFFSET 0.00000 8.73416 0.01134
                    CHANNELS 3 Zrotation Xrotation Yrotation
                    End Site
                    {
                         OFFSET -0.29000 12.77420 2.51395
                    }
               }
               JOINT LeftShoulder1
               {
                    OFFSET 8.99000 -0.36225 -0.22000
                    CHANNELS 3 Zrotation Xrotation Yrotation
                    JOINT LeftArm
                    {
                         OFFSET 10.28270 -0.00338 0.32212
                         CHANNELS 3 Zrotation Xrotation Yrotation
                         JOINT LeftForeArm
                         {
                              OFFSET 32.76690 0.09914 -1.42434
                              CHANNELS 3 Zrotation Xrotation Yrotation
                              JOINT LeftHand
                              {
                                   OFFSET 27.56430 0.08536 1.02216
                                   CHANNELS 3 Zrotation Xrotation Yrotation
                                   End Site
                                   {
                                        OFFSET 16.74430 -0.60000 1.50291
                                   }
                              }
                         }
                    }
               }
               JOINT RightShoulder
               {
                    OFFSET -8.99000 -0.36225 -0.22000
                    CHANNELS 3 Zrotation Xrotation Yrotation
                    JOINT RightArm
                    {
                         OFFSET -10.28270 -0.00338 0.32212
                         CHANNELS 3 Zrotation Xrotation Yrotation
                         JOINT RightForeArm
                         {
                              OFFSET -32.89710 0.09914 -1.42434
                              CHANNELS 3 Zrotation Xrotation Yrotation
                              JOINT RightHand
                              {
                                   OFFSET -27.49210 0.08536 1.02216
                                   CHANNELS 3 Zrotation Xrotation Yrotation
                                   End Site
                                   {
                                        OFFSET -16.63120 -0.60000 1.50291
                                   }
                              }
                         }
                    }
               }
          }
     }
     JOINT LeftUpLeg
     {
          OFFSET 8.94580 -8.66707 0.10165
          CHANNELS 3 Zrotation Xrotation Yrotation
          JOINT LeftLeg
          {
               OFFSET 0.00000 -44.42270 1.37270
               CHANNELS 3 Zrotation Xrotation Yrotation
               JOINT LeftFoot
               {
                    OFFSET -0.25355 -42.09240 -1.46059
                    CHANNELS 3 Zrotation Xrotation Yrotation
                    JOINT LeftToes
                    {
                         OFFSET -0.04000 -4.41509 8.49910
                         CHANNELS 3 Zrotation Xrotation Yrotation
                         End Site
                         {
                              OFFSET 0.08000 -0.04745 9.77979
                         }
                    }
               }
          }
     }
     JOINT RightUpLeg
     {
          OFFSET -8.94580 -8.66707 0.10165
          CHANNELS 3 Zrotation Xrotation Yrotation
          JOINT RightLeg
          {
               OFFSET 0.00000 -44.42270 1.37270
               CHANNELS 3 Zrotation Xrotation Yrotation
               JOINT RightFoot
               {
                    OFFSET 0.25355 -42.09240 -1.46059
                    CHANNELS 3 Zrotation Xrotation Yrotation
                    JOINT RightToes
                    {
                         OFFSET 0.04000 -4.41509 8.49910
                         CHANNELS 3 Zrotation Xrotation Yrotation
                         End Site
                         {
                              OFFSET -0.08000 -0.13745 9.77979
                         }
                    }
               }
          }
     }
}
MOTION
Frames: 19
Frame Time: 0.01667
40.69410 91.78123 -7.90669 9.37195 12.76325 150.41411 -9.27875 23.35471 -17.68077 0.01861 0.00638 0.08234 4.37773 12.05008 12.89124 3.82342 8.56826 55.57225 -98.55322 -16.45082 -73.42390 -73.25906 44.57755 -61.03431 38.08970 49.58447 -41.98133 16.68586 31.94847 66.40339 9.49679 -66.95846 -38.43739 51.03339 10.55473 55.77782 55.96888 6.14354 27.67611 15.57610 -13.21605 -33.20043 -24.83799 10.02804 75.42072 13.96909 -0.01423 -0.00817 -14.77580 -12.04150 -72.74403 -31.84227 8.54149 -2.19931 36.32407 45.82726 -0.83972 -30.00812 0.06900 0.03259 30.36097 -34.46371 51.78675 
40.59323 91.78952 -7.78515 8.09488 15.06885 158.17401 -6.93371 26.04590 -20.05661 0.02509 0.00501 0.06547 2.98656 9.93236 12.74267 3.98195 8.08111 52.53249 -104.07296 -24.52322 -76.99070 -75.12294 50.10338 -59.44222 31.19870 29.32700 -26.41789 12.05691 27.96154 74.91533 17.69521 -73.97990 -31.12816 54.89909 11.08586 57.40697 52.92966 6.41441 29.60909 11.34694 -13.48809 -37.25947 -23.81255 10.48815 72.88077 15.89626 -0.01622 -0.00752 -16.46725 -10.72100 -73.38323 -32.27656 11.93692 -4.23004 32.52100 47.87867 8.10240 -28.78382 -0.00594 -0.00275 23.80527 -39.49426 33.27086 
40.44936 91.82713 -7.69454 6.13757 17.43203 167.07661 -3.75612 28.29154 -22.88206 0.01776 0.00746 0.05532 0.71095 7.83877 12.48599 3.94115 7.70287 48.16884 -110.36815 -32.46350 -82.06133 -76.64440 55.17330 -58.47926 27.91685 26.17503 -27.76573 13.52370 25.27808 67.96172 51.23605 -70.30021 7.10757 58.55714 11.57835 59.55437 51.11602 7.58601 30.34052 6.47168 -13.14813 -41.35049 -22.59837 11.16544 69.54830 17.75748 -0.01647 -0.00747 -17.91911 -9.37947 -74.11254 -32.42608 15.92799 -6.15051 28.52552 49.15827 15.59401 -24.32340 -0.23074 -0.03633 19.08096 -40.44905 25.57854 
40.29160 91.86275 -7.63823 3.38101 19.53787 177.05443 0.03050 29.78432 -26.17953 0.00924 0.00830 0.04506 -2.38983 6.06628 12.21359 5.41759 9.13857 52.46793 -116.67873 -30.58540 -83.58591 -76.35240 59.05646 -58.29831 26.64449 8.77993 -20.38794 14.24104 22.23544 60.80711 70.09503 -63.23145 30.51460 61.95334 12.49697 62.25891 49.23357 8.09599 30.82135 1.18482 -12.07219 -45.28608 -21.17796 12.02748 65.42100 19.43111 -0.01496 -0.00763 -19.12650 -7.96851 -74.90356 -32.20160 20.38184 -8.09807 26.74675 50.71947 17.73482 -20.61980 -0.09866 0.03866 13.10159 -43.98661 16.36707 
40.14541 91.86734 -7.60708 0.73727 20.94167 185.68425 3.77504 30.14159 -27.45793 0.00598 0.00058 0.03307 -6.27241 5.03655 11.98099 5.12663 8.45883 44.64167 -121.08418 -35.21800 -87.99149 -75.92963 61.96486 -57.84304 24.77225 5.99726 -22.32865 7.01149 12.73154 62.04316 93.07726 -61.95869 48.96495 64.89429 14.42580 65.31653 48.08782 9.54424 30.44631 -3.04796 -10.52062 -46.87452 -19.55072 13.02235 60.48852 20.80888 -0.01174 -0.00723 -20.12142 -6.42506 -75.71677 -31.42184 23.96835 -8.47026 27.96875 50.42947 15.20942 -17.39178 -0.10058 -0.00881 10.04072 -45.22521 12.96206 
40.02773 91.83859 -7.58887 -1.63328 21.80720 192.97896 7.13532 29.67977 -26.66901 -0.00402 0.00296 0.02915 -9.92644 5.12117 10.28104 4.65323 7.89107 36.23178 -123.72220 -37.11743 -90.73069 -75.25615 63.79123 -57.18840 25.22932 -1.57346 -18.81455 6.56813 11.12214 52.57885 97.99063 -51.86485 59.28016 67.23571 16.70053 68.04380 47.26034 9.80421 29.09398 -6.26054 -8.82768 -46.32814 -17.72787 14.08622 54.75384 21.82441 -0.00734 -0.00595 -20.90722 -4.74552 -76.52043 -30.31538 26.82680 -7.36911 31.05091 48.85587 9.62544 -15.10587 -0.03519 -0.01099 7.83012 -46.04248 10.24617 
39.94307 91.79225 -7.58100 -3.63682 22.28599 198.97833 9.97698 28.70965 -23.89831 -0.01030 0.00752 0.02575 -13.10035 6.35299 7.29932 4.11965 7.51353 27.06858 -124.61214 -37.46940 -92.07780 -73.95676 64.63112 -56.87395 23.87044 -1.72267 -20.68751 6.09627 10.05834 42.56039 100.08675 -41.42480 67.78494 69.04871 18.57415 70.07024 46.68916 10.22854 27.72690 -8.55048 -7.20943 -43.88551 -15.73699 15.13999 48.24297 22.46500 -0.00271 -0.00420 -21.46114 -2.99709 -77.27813 -29.04581 29.10112 -4.86320 34.97834 46.15108 2.33270 -13.22465 -0.00460 -0.00948 6.97420 -46.32469 9.70994 
39.88372 91.74507 -7.59263 -5.22929 22.51128 203.74031 12.29136 27.52235 -19.33028 -0.00904 0.01929 0.02431 -15.51065 8.59595 3.16470 3.58079 7.33789 17.27671 -119.56629 -34.68341 -89.84048 -62.91417 63.05827 -64.65720 24.20963 -4.89156 -18.84499 6.25763 9.68633 31.99264 99.67922 -30.92115 75.30289 70.73439 19.49793 71.59753 29.73755 13.85403 16.14198 -10.02799 -5.77161 -39.76795 -13.62519 16.09181 41.00649 22.76466 0.00122 -0.00269 -21.73655 -1.31907 -77.96219 -27.75796 30.95907 -0.98813 39.01624 42.33681 -5.69274 -11.72055 0.01161 -0.00729 6.63669 -46.39766 9.78457 
39.83001 91.70769 -7.63074 -6.40206 22.59375 207.33162 14.10862 26.47911 -13.30990 -0.00543 0.04674 0.02394 -16.35672 11.85372 -3.45245 3.26589 7.24737 6.94981 -111.73698 -30.00131 -86.06799 -48.88170 58.89131 -74.83501 23.05874 -4.12728 -20.32080 7.39640 9.43470 20.87155 97.15482 -20.49885 82.01939 67.93562 16.64715 73.10896 28.90413 14.70519 14.33810 -10.97664 -4.53640 -35.32850 -11.61292 16.73921 34.30434 22.75016 0.00433 -0.00175 -21.69628 0.13811 -78.56503 -26.51710 32.30935 3.07918 42.14528 38.35740 -12.99741 -10.38218 0.02016 -0.00541 6.77941 -46.21033 10.67445 
39.75703 91.68738 -7.71254 -6.56243 22.29942 207.81219 14.76113 25.20237 -5.63322 -0.00841 0.01465 -0.08025 -15.85122 15.46369 -10.42294 3.29355 7.78621 -2.05865 -103.42033 -24.01670 -81.96495 -43.20932 50.68203 -78.37971 21.55453 -0.75855 -20.79003 9.02374 9.47710 11.41948 94.29827 -14.13970 85.68053 65.56146 14.09136 74.38058 21.43631 17.83032 9.24690 -11.05331 -4.37573 -29.05861 -9.72754 17.14817 28.20931 22.44660 0.00638 -0.00142 -21.32399 1.22148 -79.09749 -26.00372 31.91516 8.96062 45.40131 34.13964 -23.13309 -7.55995 0.20428 -0.04052 7.99918 -46.03654 16.40319 
39.64955 91.69808 -7.84599 -5.83123 21.81298 205.71498 14.75307 24.01398 2.84135 -0.00331 0.01328 -0.08643 -14.23470 18.65068 -17.76051 3.72448 8.48115 -9.99336 -98.41112 -20.92440 -80.06293 -40.95896 44.71286 -80.13704 19.62154 2.57715 -22.39134 11.04696 9.34119 3.03724 91.71873 -10.04687 86.97899 60.18784 9.02574 74.96699 25.90098 16.26952 11.15179 -10.38399 -4.98594 -21.44314 -7.97647 17.38352 22.77794 21.87528 0.00730 -0.00192 -20.62795 1.80835 -79.56929 -26.10348 30.19742 16.27903 47.72423 28.29245 -32.27924 -9.23412 -0.02809 0.04732 12.72899 -43.55619 22.04276 
39.51151 91.75764 -8.01880 -4.35960 21.15466 201.49815 14.31553 23.58591 10.52608 -0.00355 0.05887 -0.17325 -12.31476 20.15737 -24.10093 4.14212 8.64756 -15.35630 -95.41088 -19.77656 -79.09799 -40.32675 40.60874 -80.93344 18.48903 3.40206 -21.98459 12.72270 8.57695 -2.90698 91.36229 -9.93497 84.29060 56.12118 6.66226 74.55442 14.25871 23.05698 5.73347 -9.01486 -6.11046 -12.84412 -6.36484 17.51428 18.04659 21.04399 0.00736 -0.00341 -19.64058 1.85515 -79.98182 -26.55770 27.36295 24.57780 50.30806 22.96067 -41.82585 -6.21862 0.26733 -0.00422 12.81148 -42.06213 29.14384 
39.34375 91.87489 -8.23493 -2.32081 20.25678 195.56506 13.43446 23.62292 17.50433 -0.00924 0.04841 -0.15126 -10.35749 20.39894 -29.62106 4.47405 8.59262 -18.74316 -93.77772 -19.85712 -78.53656 -46.48491 38.06456 -77.97649 18.01026 9.17420 -23.37355 19.87729 4.41855 -16.54709 85.64566 -2.95327 78.13279 52.46850 6.07367 73.28883 27.61797 12.58892 15.91302 -6.94076 -7.47775 -4.52935 -5.21566 17.44827 15.06169 19.95340 0.00682 -0.00560 -18.41441 1.41503 -80.33682 -27.27952 23.68408 32.47788 53.34027 20.31125 -48.57589 -10.14696 0.00346 -0.02171 18.79126 -42.01569 34.28430 
39.15319 92.06626 -8.47498 0.10883 19.02748 188.27002 12.15330 23.83727 23.86946 -0.00710 0.03231 -0.13118 -8.52396 19.60760 -34.28220 6.01860 9.59614 -30.43917 -94.89734 -30.48447 -80.51477 -49.99195 36.99002 -76.52922 12.13104 -5.09568 -16.63669 20.18815 3.92671 -17.61753 87.53052 -7.55624 73.26918 48.79667 7.12508 71.73087 15.71918 22.93390 7.75559 -4.16594 -8.89101 3.49129 -4.47408 17.32043 13.61685 18.60661 0.00562 -0.00804 -17.01156 0.59211 -80.63957 -27.90456 19.17161 39.74240 54.38609 16.21706 -52.51676 -10.79306 0.00060 0.03490 19.32088 -39.70995 37.45798 
38.94736 92.32055 -8.69932 2.46832 17.51413 180.75638 10.71387 23.88744 30.06807 -0.00982 0.00573 -0.03893 -6.64570 18.53407 -38.74395 7.30635 10.08370 -38.11612 -96.00787 -37.77613 -81.84800 -53.10851 36.27182 -75.44577 10.08224 -10.54837 -13.74701 21.49896 2.37129 -21.73960 87.67230 -8.82076 68.01257 44.59938 8.88888 70.55982 10.50640 26.27160 6.35536 -1.12389 -9.94468 11.48798 -3.79735 17.17639 12.55507 17.08015 0.00515 -0.01032 -15.56300 -0.35731 -80.92423 -28.04193 14.24676 46.60435 55.76505 12.95689 -56.02668 -11.43611 0.01855 0.01194 19.67331 -38.12661 40.27124 
38.73177 92.61689 -8.89639 4.70535 15.69664 173.05324 9.17605 23.74734 36.11349 -0.00456 0.00784 -0.02859 -4.79774 17.12082 -42.86973 8.26927 10.25727 -42.77312 -97.04842 -42.70464 -82.72170 -55.80750 35.86814 -74.51138 9.44206 -11.11264 -12.60221 23.21270 0.05204 -27.35570 86.39651 -8.35651 62.76953 40.07599 11.07522 69.95773 11.05971 23.77342 7.81179 2.18176 -10.63804 19.46398 -3.19217 17.01328 11.84961 15.38831 0.00497 -0.01111 -14.06717 -1.37347 -81.21310 -27.60762 8.96918 53.11776 57.46675 10.38737 -59.17019 -12.02047 0.02191 0.00619 19.72168 -37.18679 42.43660 
38.50838 92.93237 -9.07039 6.59855 13.72781 165.78909 7.63649 23.44147 41.36716 -0.00039 0.01018 -0.02588 -2.94001 15.39657 -46.71346 9.00076 10.22955 -45.25180 -98.35381 -44.86423 -83.07031 -56.88122 36.07474 -73.86502 9.33450 -9.24837 -12.33801 24.93743 -2.76416 -33.69500 84.00021 -7.01467 58.21330 37.06334 13.62818 69.49503 13.92734 19.70579 10.60387 5.42874 -10.89896 26.82798 -2.66733 16.83663 11.48286 13.55844 0.00487 -0.01052 -12.53397 -2.37885 -81.50652 -26.75789 3.85134 58.92333 58.70716 7.56345 -61.92617 -13.33675 -0.02288 0.01179 17.44716 -35.73013 37.74515 
38.30379 92.98362 -9.23976 8.10042 11.66589 158.95251 5.93543 22.90841 45.88895 -0.00644 0.01294 -0.02477 -0.85841 13.96809 -49.72458 7.40348 12.31282 -47.84319 -98.03096 -49.11285 -83.84505 -56.68470 37.35520 -73.07845 10.91688 -2.39599 -10.71762 24.03399 -2.71560 -39.81566 83.69062 -4.67146 55.51908 33.73257 16.04323 69.85320 19.87523 19.91748 12.19168 8.55980 -10.82346 33.56643 -1.74479 16.92642 10.95601 11.09750 -0.00417 -0.01013 -7.73754 -1.63693 -76.36432 -25.49328 -0.83827 64.10043 58.73169 4.33198 -64.55295 -14.81817 -0.03622 0.01946 15.99011 -34.70313 31.03775 
38.08316 93.04628 -9.46432 9.21873 9.56666 152.51993 4.11098 22.11688 49.66087 -0.00520 0.01244 -0.02470 1.40538 12.91693 -51.83041 6.08130 13.64302 -48.32643 -99.71435 -52.77226 -84.97654 -55.52976 39.60677 -72.22020 13.03608 6.11640 -9.19361 20.95248 -0.03740 -44.60126 85.46592 -1.98812 53.99561 29.84845 18.21722 71.04055 25.97004 22.55050 14.38620 11.49638 -10.52733 39.65240 -0.61093 17.19297 10.31474 8.22119 -0.01642 -0.01113 -1.30303 0.84669 -68.10181 -23.96174 -4.85501 68.72546 57.46505 1.01615 -67.06541 -16.28077 -0.04237 0.02675 15.06600 -33.56851 23.35498 
